<svg width="751" height="632" viewBox="0 0 751 632" fill="none" xmlns="http://www.w3.org/2000/svg">
<path d="M0 0H751V632H0V0Z" fill="#C5BDB5"/>
<path d="M547.016 311.41C552.965 310.946 563 306.5 563.5 311.5C564 316.5 565.109 323.462 565.073 328.759C565.638 374.473 538.268 407.909 507.174 437.969C504.959 440.108 490.166 452.125 488.315 452.629C486.846 454.369 482.593 457.633 480.55 459.016C479.697 459.808 476.509 460.231 475.288 461.22C463.28 471.007 449.067 476.979 434.926 482.937C433.432 483.563 431.611 483.411 430.138 483.981C414.159 490.156 393.948 496.013 376.869 491.498C367.778 489.092 359.074 488.728 350.199 486.216C328.294 480.016 306.89 473.135 288.911 458.536C281.133 452.215 273.44 445.587 266.033 438.837C261.705 434.822 257.954 428.642 253.415 424.662C239.993 413.74 224.214 400.059 211.664 388.537C200.098 377.918 188.592 350.925 187.872 335.498C187.54 328.385 187.004 319.087 187 311.5C189.852 311.465 204.5 310 204.5 311.499C204.152 329.473 203.843 339.06 211.571 355.783C214.299 361.866 217.549 369.161 222.234 374.064C230.754 382.983 241.146 390.394 250.106 398.985C254.272 403.091 260.921 407.127 264.821 411.258C276.994 424.152 288.601 436.441 303.148 446.909C310.791 452.402 321.04 458.234 329.963 461.684C350.876 469.766 374.419 474.351 396.747 475.547C400.461 475.718 411.208 472.813 414.618 471.203C415.759 470.664 415.794 470.971 417.418 471.405C427.958 467.203 437.993 464.05 448.179 458.773C479.778 442.404 505.257 418.381 526.608 390.293C543.611 367.749 550.952 339.373 547.016 311.41Z" fill="#222222"/>
<path d="M396.34 139.098C428.058 138.149 452.921 143.925 477.401 164.55C480.726 167.353 488.193 172.641 490.852 175.496C498.132 183.325 508.964 196.767 514.443 205.782C519.625 214.316 524.433 225.69 529.246 234.378C532.399 240.072 538.282 247.47 541.849 253.235C550.825 267.732 562.925 294.81 563.5 311.5L547.042 311.598C544.928 305.465 543.459 298.619 541.118 292.255C537.243 282.093 532.788 270.922 526.36 262.087C516.376 248.367 509.6 233.696 502.143 218.577C498.172 210.535 492.799 205.092 488.238 197.947C482.194 188.49 476.619 183.51 467.441 177.133C459.243 170.9 452.825 166.109 443.249 161.439C430.889 155.408 417.503 154.659 403.959 154.168C401.042 154.056 397.891 153.349 394.958 153.702C384.739 155.342 375.847 158.555 366.172 161.933C353.093 166.302 338.584 169.496 325.14 173.18C297.04 180.877 274.252 197.503 252.004 215.85C223.621 239.258 206.988 274.854 204.5 311.5H187C189.279 279.241 201.743 246.448 222.264 221.362C239.422 200.397 263.978 187.121 286.886 173.554C308.438 160.79 332.258 156.011 356.023 149.491C369.365 145.831 382.307 140.152 396.34 139.098Z" fill="#222222"/>
<path d="M508.375 311.192C508.375 304.692 524.329 294.7 527 305.5C529.671 316.299 526.836 335.191 515.989 352.434C515.898 355.032 513.845 355.713 512.75 358.452L512.18 358.634C511.03 359.955 510.545 361.11 509.027 362.72C503.109 368.99 495.98 374.595 490.869 381.546C487.897 385.794 484.951 390.505 482.261 394.935C473.816 408.858 464.633 421.718 451.839 431.957C451.48 432.244 450.829 431.455 450.466 431.745C447.794 433.875 445.653 436.648 442.833 438.596C422.823 449.573 399.608 453.78 376.989 454.658C365.425 455.107 353.357 450.057 343.398 444.589C335.355 440.175 330.614 431.543 323.22 426.569C317.642 422.816 311.085 419.693 305.395 416.036C298.422 411.551 292.401 407.586 285.266 403.672C278.751 400.1 265.037 393.562 259.738 389.673C254.425 385.768 235.35 367.633 232.12 363.249C224.891 353.438 227.671 323.779 230.375 311.692C234.232 311.611 243.073 309.971 246.375 311.192C245.875 315.692 240.879 330.737 241.247 337.36C241.808 347.44 244.559 355.889 250.82 363.295C265.608 380.789 277.775 382.989 296.772 392.488C306.937 397.573 318.358 405.155 328.658 410.578C339.895 416.778 344.801 427.22 356.245 433.601C370.701 441.663 381.588 440.048 397.298 437.728C417.556 434.736 431.224 429.001 446.016 414.79C456.369 404.847 463.105 393.885 470.849 381.884C473.276 378.156 475.38 373.904 478.134 370.418C486.605 359.693 498.114 352.207 504.198 339.489C508.557 330.384 508.375 317.692 508.375 311.192Z" fill="#222222"/>
<path d="M230.5 311.5C232.764 298.784 232.48 288.3 233.111 275.509C233.666 264.242 240.135 248.97 246.53 239.799C250.265 234.445 258.951 226.994 264.226 223.058C271.251 217.817 280.597 214.403 287.987 209.625C297.403 202.515 303.822 193.7 314.865 188.715C323.447 184.841 328.523 183.881 338.058 184.875C350.062 186.126 360.657 180.564 372.135 177.292C383.13 174.157 396.585 171.745 408.104 173.674C418.21 176.071 437.019 181.857 442.972 190.865C448.481 198.697 449.324 208.702 455.671 216.039C469.641 232.182 491.533 237.924 504.509 255.348C512.143 265.592 519.458 275.008 522.611 287.677C522.995 289.204 523.989 297.563 524.463 298.09L524.604 298.651C525.674 302.718 529.443 307.092 525.003 311.013C523.247 312.152 511.199 311.59 508.374 311.544C507.758 285.682 496.976 266.357 477.088 250.15C473.188 246.971 465.444 243.262 462.971 239.366C459.758 238.012 459.339 237.55 456.69 235.336C451.574 230.41 445.994 225.326 442.084 219.513C437.69 212.985 436.332 199.175 430.127 194.649C423.558 189.86 408.679 183.162 400.238 184.614C399.939 184.653 399.64 184.692 399.34 184.73L398.579 184.165C394.834 184.932 390.364 185.509 386.539 185.982C374.234 189.957 361.663 194.33 349.105 197.223C343.741 198.458 332.984 195.114 327.624 197.087C311.576 202.933 307.989 219.277 290.7 224.599C278.971 228.209 271.724 234.64 263.367 242.806C241.652 264.027 250.276 283.946 246.5 311C240.938 311.372 236.062 311.543 230.5 311.5Z" fill="#222222"/>
<path d="M271.5 310.5C273.5 301 284.891 310.355 286.5 311.5C286.203 314.804 279.041 328.356 277.455 333.617C271.259 354.179 290.102 361.786 306.578 364.853C318.832 367.129 326.387 365.212 337.854 372.304C351.313 380.628 361.232 395.298 375.934 400.69C382.47 402.779 392.996 399.797 399.329 399.172C409.255 398.193 420.688 398.713 429.603 392.977C439.431 386.656 438.003 373.823 441.449 363.683C443.583 357.392 445.687 351.198 448.966 345.255C458.219 328.507 465.096 331.282 469.243 311.088C473.582 311.249 482 306 482.5 310.5C483 315 481.493 316.627 480.731 320.062C477.452 335.847 466.534 340.594 459.435 356.954C457.261 361.933 455.586 367.113 454.435 372.42C452.695 380.31 452.579 387.61 448.083 394.662C441.197 405.473 427.393 409.695 415.562 412.263C409.77 413.524 400.801 413.478 395.285 414.371C367.118 418.917 363.537 412.434 343.751 394.854C338.161 389.89 334.122 385.193 326.867 382.565C320.011 380.078 315.165 380.335 308.002 379.791C297.552 378.923 286.312 375.583 277.408 370.039C255.405 356.333 269.5 320 271.5 310.5Z" fill="#222222"/>
<path d="M405.112 207.642C406.9 207.729 409.128 207.62 410.697 207.787C427.695 209.607 432.013 224.456 437.538 237.711C438.461 239.929 442.578 243.941 444.485 245.78C452.184 253.185 464.091 254.707 471.17 262.737C484.096 277.598 483.455 293.177 482.562 311.397H469.183C470.122 298.52 469.707 285.818 462.078 274.773C456.75 267.061 447.119 269.326 441.034 262.6C436.569 257.195 428.421 249.514 425.056 243.649C418.85 232.83 422.079 229.559 410.43 221.691L404.33 221.084C388.438 228.013 382.191 240.854 360.8 238.911L359.225 237.768C356.271 237.466 345.027 234.965 342.218 233.951C340.617 234.687 337.45 236.08 336.155 237.006C332.061 239.935 327.911 246.504 323.829 249.171C315.622 254.534 307.298 258.205 299.406 264.181C287.231 273.4 288.315 280.955 288.161 294.814C288.108 299.588 287.156 306.717 286.5 311.5C282.145 311.776 275.778 311.485 271.267 311.415C276.317 292.027 269.403 277.53 281.559 262.229C290.319 251.202 300.062 247.087 311.852 240.09C319.998 235.256 321.076 229.218 329.922 224.347C346.505 215.216 357.556 228.128 370.846 224.284C385.439 220.063 387.814 209.885 405.112 207.642Z" fill="#222222"/>
<path d="M300 310.505C303.374 303.248 315 307 314 310C313 313 313.402 318.438 314.384 321.05C322.865 343.649 340.153 327.739 357.688 343.386C368.865 353.359 371.614 365.016 383.612 371.614C386.672 373.294 390.809 373.44 394.001 372.128C417.953 362.302 411.001 354.02 417.646 333.747C419.063 329.419 426.689 316.267 428.094 311.134C429.5 306 443 303 443 311C443 319 435.027 329.6 431.561 338.806C427.64 349.223 427.943 361.989 420.617 370.908C419.24 372.582 415.133 376.33 412.822 376.436C411.904 377.263 409.634 378.797 409.069 379.377C404.046 382.156 392.825 385.975 387.039 385.753C364.889 384.921 359.65 357.798 344.359 351.018C333.5 346.206 320.153 352.194 309.053 339.77C300.82 330.554 296.626 317.762 300 310.505Z" fill="#222222"/>
<path d="M399.16 258.134C411.454 257.155 422.634 265.09 430.364 273.887C439.37 284.286 443.913 297.772 443 311.5C438.146 311.4 427.5 313 428 311.5C428.5 310 428.023 305.857 427.321 303.197C423.886 290.102 415.46 275.896 402.089 271.475C395.871 273.062 389.373 274.903 382.975 275.435C372.574 276.301 361.691 275.809 351.293 276.647C340.113 276.756 334.831 288.45 328.972 295.854C325.215 300.6 315.785 304.064 314 310C311.819 311.848 300 314.5 300 310.5C302.827 302.199 307.023 295.103 314.632 290.239C320.94 286.208 321.948 281.138 326.801 275.357C342.333 256.852 358.198 264.503 378.701 262.956C384.395 262.526 389.684 258.787 399.16 258.134Z" fill="#222222"/>
<path d="M343.36 311.123C344.612 311.052 341.588 305.998 346.044 311.249C350.5 316.5 358.576 314.402 365.451 319.669C371.406 324.234 374.774 330.02 379.922 335.604C392.833 335.12 388.524 328.88 393.626 320.092C395.848 316.268 406 312 404 310C402 308 414 301.5 415.5 311C417 320.5 412.464 318.952 408.271 322.393C407.252 323.361 404.985 325.48 404.355 326.605C401.506 331.685 400.386 340.462 394.843 343.373C392.245 344.735 387.89 345.769 385.048 346.284C370.465 349.538 366.861 335.529 357.288 328.88C351.22 324.663 339.902 327.382 336.24 318.791C335.45 316.934 333 313 334.5 311C336 309 341.035 311.078 343.36 311.123Z" fill="#222222"/>
<path d="M390.056 288.886C405.423 287.354 413.629 297.199 415.278 311.471C412.907 311.534 410.006 311.688 407.64 311.59C402 311 403.74 307.68 401.937 304.379C400.905 302.492 399.491 301 398.045 299.426C389.752 298.57 384.251 300.193 376.067 300.612C371.036 300.869 367.31 299.89 362.027 300.757C352.029 305.255 345.233 306.068 346.116 311.534C347 317 338.207 311.593 334.252 311.563C341.123 295.416 354.318 285.753 372.067 292.291C378.509 290.641 383.535 289.856 390.056 288.886Z" fill="#222222"/>
</svg>
