<svg width="751" height="632" viewBox="0 0 751 632" fill="none" xmlns="http://www.w3.org/2000/svg">
<rect width="751" height="632" fill="#626A53"/>
<path d="M574.071 325.024C565.111 325.024 557.815 322.464 552.183 317.344C546.551 312.224 543.735 304.331 543.735 293.664C543.735 282.997 546.637 274.72 552.439 268.832C558.327 262.944 565.751 260 574.711 260C583.757 260 591.095 262.56 596.727 267.68C602.359 272.8 605.175 280.693 605.175 291.36C605.175 302.027 602.231 310.304 596.343 316.192C590.541 322.08 583.117 325.024 574.071 325.024ZM574.967 261.024C568.482 261.024 563.106 263.925 558.839 269.728C554.573 275.445 552.439 283.467 552.439 293.792C552.439 304.032 554.402 311.627 558.327 316.576C562.253 321.525 567.458 324 573.943 324C580.429 324 585.805 321.141 590.071 315.424C594.338 309.621 596.471 301.6 596.471 291.36C596.471 281.035 594.509 273.397 590.583 268.448C586.658 263.499 581.453 261.024 574.967 261.024Z" fill="#EDE7E1"/>
<path d="M514.562 261.024C508.504 261.024 503.426 263.925 499.33 269.728C495.32 275.531 493.314 283.552 493.314 293.792C493.314 304.032 495.149 311.627 498.818 316.576C502.573 321.525 507.48 324 513.538 324C521.133 324 527.874 322.72 533.762 320.16L534.146 321.056C528.088 323.701 521.005 325.024 512.898 325.024C504.792 325.024 498.05 322.464 492.674 317.344C487.298 312.224 484.61 304.331 484.61 293.664C484.61 282.997 487.426 274.72 493.058 268.832C498.69 262.944 505.858 260 514.562 260C519.426 260 523.906 261.109 528.002 263.328C532.184 265.547 535.256 268.917 537.218 273.44H529.026C527.746 269.259 525.784 266.144 523.138 264.096C520.578 262.048 517.72 261.024 514.562 261.024Z" fill="#EDE7E1"/>
<path d="M426.195 309.792C426.195 316.533 427.987 320.842 431.571 322.72C433.278 323.573 435.454 324 438.099 324C443.475 324 448.254 321.952 452.435 317.856C456.702 313.76 459.006 309.962 459.347 306.464V260.512H468.307V315.424C468.307 317.898 468.777 319.818 469.715 321.184C470.739 322.464 471.763 323.146 472.787 323.232L474.195 323.488H478.163V324.512H470.355C466.857 324.512 464.169 323.744 462.291 322.208C460.499 320.672 459.561 319.136 459.475 317.6L459.347 315.424V309.92C457.811 313.589 455.081 317.045 451.155 320.288C447.23 323.445 442.921 325.024 438.227 325.024C433.619 325.024 429.822 324.597 426.835 323.744C423.934 322.805 421.843 321.525 420.563 319.904C418.345 317.258 417.235 313.845 417.235 309.664V260.512H426.195V309.792Z" fill="#EDE7E1"/>
<path d="M403.724 324.512C397.922 324.512 393.954 323.403 391.82 321.184C389.858 319.307 388.876 317.685 388.876 316.32V313.632C384.695 321.227 377.996 325.024 368.78 325.024C358.028 325.024 351.927 320.16 350.476 310.432C350.306 309.408 350.22 308.384 350.22 307.36C350.22 306.251 350.391 305.056 350.732 303.776C351.074 302.496 352.055 301.088 353.676 299.552C356.919 296.48 364.044 294.603 375.052 293.92C377.783 293.664 380.3 293.536 382.604 293.536C384.908 293.536 386.999 293.621 388.876 293.792V272.544C388.706 272.459 388.706 272.075 388.876 271.392C389.047 270.624 388.876 269.685 388.364 268.576C387.938 267.381 387.34 266.229 386.572 265.12C385.804 264.011 384.439 263.072 382.476 262.304C380.514 261.451 377.954 261.024 374.796 261.024C371.639 261.024 367.927 261.621 363.66 262.816C359.479 263.925 356.407 265.035 354.444 266.144L353.932 265.248C361.527 261.749 369.25 260 377.1 260C385.89 260 391.692 261.579 394.508 264.736C396.727 267.211 397.836 269.813 397.836 272.544V315.424C397.836 317.899 398.306 319.819 399.244 321.184C400.268 322.464 401.292 323.147 402.316 323.232L403.724 323.488H407.692V324.512H403.724ZM370.828 324C375.351 324 379.404 322.464 382.988 319.392C386.658 316.235 388.62 313.205 388.876 310.304V294.816C386.572 294.645 384.226 294.56 381.836 294.56C379.532 294.56 377.228 294.688 374.924 294.944C368.439 295.712 364.215 297.163 362.252 299.296C360.29 301.429 359.308 304.373 359.308 308.128C359.308 308.811 359.351 309.579 359.436 310.432C360.204 319.477 364.002 324 370.828 324Z" fill="#EDE7E1"/>
<path d="M334.236 264.992C332.871 263.883 330.652 262.944 327.58 262.176C324.594 261.408 322.332 261.024 320.796 261.024C319.26 261.024 318.364 261.024 318.108 261.024C313.5 261.109 310.172 262.304 308.124 264.608C306.076 266.827 305.052 269.344 305.052 272.16C305.052 274.976 305.948 277.365 307.74 279.328C309.532 281.205 311.751 282.699 314.396 283.808C317.127 284.832 320.028 286.027 323.1 287.392C326.258 288.757 329.159 290.165 331.804 291.616C334.535 292.981 336.796 295.029 338.588 297.76C340.38 300.405 341.276 303.733 341.276 307.744C341.276 311.755 339.868 315.168 337.052 317.984C334.236 320.8 331.079 322.677 327.58 323.616C324.167 324.555 320.455 325.024 316.444 325.024C307.74 325.024 301.212 323.104 296.86 319.264L297.628 318.496C299.335 320.117 301.852 321.44 305.18 322.464C308.594 323.488 311.879 324 315.036 324C320.071 324 324.21 322.635 327.452 319.904C330.78 317.088 332.444 313.632 332.444 309.536C332.444 305.355 331.207 302.027 328.732 299.552C326.258 296.992 323.228 295.029 319.644 293.664C316.146 292.213 312.604 290.805 309.02 289.44C305.436 287.989 302.407 286.027 299.932 283.552C297.458 280.992 296.22 278.048 296.22 274.72C296.22 271.392 296.988 268.704 298.524 266.656C300.06 264.523 302.108 263.029 304.668 262.176C309.02 260.725 313.372 260 317.724 260C325.063 260 330.78 261.365 334.876 264.096L334.236 264.992Z" fill="#EDE7E1"/>
<path d="M605.175 291.359C605.175 281.026 602.532 273.296 597.247 268.168L596.728 267.68C591.272 262.72 584.214 260.162 575.555 260.007L574.711 260C565.751 260 558.327 262.944 552.439 268.832C546.637 274.72 543.735 282.997 543.735 293.664L543.743 294.655C543.914 304.821 546.728 312.384 552.184 317.344C557.64 322.304 564.657 324.862 573.236 325.017L574.071 325.023C583.117 325.023 590.54 322.079 596.343 316.191C602.231 310.303 605.175 302.026 605.175 291.359ZM595.472 291.359C595.472 281.447 593.641 274.223 590.144 269.517L589.8 269.069C586.07 264.367 581.156 262.023 574.967 262.023C568.838 262.024 563.747 264.741 559.645 270.32L559.641 270.326C555.549 275.809 553.439 283.589 553.439 293.792L553.445 294.734C553.563 304.391 555.505 311.408 559.11 315.954C562.84 320.657 567.754 323 573.943 323V324L573.339 323.992C567.334 323.847 562.454 321.527 558.699 317.032L558.327 316.576C554.525 311.782 552.564 304.504 552.445 294.744L552.439 293.792C552.439 283.467 554.572 275.445 558.839 269.728C563.105 263.925 568.482 261.024 574.967 261.023C581.452 261.023 586.658 263.498 590.583 268.447C594.508 273.397 596.472 281.034 596.472 291.359L596.465 292.313C596.336 302.099 594.205 309.803 590.071 315.424C585.805 321.141 580.429 324 573.943 324V323C580.078 323 585.17 320.319 589.27 314.825C593.364 309.254 595.472 301.47 595.472 291.359ZM606.175 291.359C606.175 302.21 603.175 310.769 597.055 316.893L597.056 316.894C591.046 322.991 583.357 326.023 574.071 326.023C565.196 326.023 557.832 323.562 552.063 318.574L551.511 318.084C545.597 312.708 542.735 304.496 542.735 293.664C542.735 282.814 545.691 274.255 551.727 268.13L551.732 268.125C557.823 262.034 565.508 259 574.711 259C583.667 259 591.074 261.46 596.847 266.449L597.4 266.939C603.314 272.315 606.175 280.528 606.175 291.359Z" fill="#EDE7E1"/>
<path d="M483.61 293.664C483.61 282.822 486.476 274.267 492.336 268.141C498.17 262.041 505.606 259 514.562 259C519.585 259 524.23 260.147 528.479 262.448C532.728 264.705 535.885 268.102 537.94 272.603L538.136 273.042L538.742 274.439H528.286L528.07 273.732C526.91 269.941 525.195 267.143 522.977 265.253L522.526 264.887L522.52 264.882L522.514 264.877C520.124 262.965 517.483 262.023 514.562 262.023C508.888 262.023 504.093 264.715 500.147 270.305C496.297 275.88 494.314 283.673 494.314 293.792L494.319 294.735C494.43 304.396 496.246 311.422 499.615 315.972C503.186 320.679 507.802 323 513.538 323V324L512.974 323.992C507.361 323.847 502.761 321.527 499.174 317.032L498.818 316.576C495.264 311.782 493.43 304.504 493.319 294.744L493.314 293.792C493.314 283.552 495.319 275.53 499.33 269.728C503.426 263.925 508.504 261.023 514.562 261.023L515.15 261.036C518.076 261.156 520.739 262.176 523.139 264.096C525.618 266.016 527.498 268.873 528.778 272.668L529.026 273.439H537.218C535.316 269.058 532.374 265.758 528.391 263.539L528.002 263.328C524.162 261.248 519.985 260.143 515.47 260.013L514.562 260C505.859 260 498.691 262.944 493.059 268.832L492.538 269.391C487.253 275.239 484.61 283.331 484.61 293.664L484.618 294.655C484.781 304.821 487.466 312.384 492.674 317.344C497.882 322.304 504.372 324.862 512.143 325.017L512.898 325.023C521.005 325.023 528.088 323.701 534.146 321.056L533.763 320.16C527.875 322.72 521.133 324 513.538 324V323C521.02 323 527.622 321.738 533.363 319.242L534.285 318.842L535.457 321.575L534.546 321.973C528.336 324.684 521.112 326.023 512.898 326.023C504.561 326.023 497.564 323.381 491.984 318.067C486.337 312.689 483.61 304.483 483.61 293.664Z" fill="#EDE7E1"/>
<path d="M426.195 309.792V260.512H417.235V309.664L417.248 310.438C417.378 314.269 418.483 317.423 420.563 319.903C421.843 321.525 423.934 322.805 426.835 323.744C429.635 324.544 433.148 324.969 437.373 325.019L438.228 325.023C442.921 325.023 447.23 323.445 451.155 320.288C455.081 317.045 457.812 313.589 459.348 309.92V315.424L459.476 317.6C459.561 319.136 460.499 320.672 462.291 322.208C464.051 323.648 466.524 324.413 469.709 324.503L470.355 324.512H478.163V323.487H474.195L472.787 323.231C471.763 323.146 470.739 322.464 469.715 321.184C468.835 319.904 468.367 318.136 468.312 315.881L468.308 315.424V260.512H459.348V306.464C459.006 309.962 456.702 313.76 452.436 317.855C448.254 321.951 443.475 324 438.1 324V323C443.189 323 447.723 321.072 451.735 317.142L451.742 317.135H451.743C455.931 313.115 458.029 309.538 458.348 306.4V259.512H469.308V315.424L469.312 315.859C469.364 317.979 469.799 319.524 470.519 320.587C471.401 321.682 472.15 322.126 472.751 322.221L472.87 322.235L472.919 322.239L472.966 322.248L474.282 322.487H479.163V325.512H470.355C466.952 325.512 464.15 324.813 462.065 323.296L461.658 322.981L461.649 322.975L461.641 322.967C459.752 321.348 458.585 319.581 458.477 317.658L458.349 315.482L458.348 315.453V313.914C456.717 316.42 454.526 318.8 451.792 321.059L451.782 321.067C447.693 324.356 443.166 326.023 438.228 326.023C433.858 326.023 430.159 325.645 427.152 324.866L426.561 324.705L426.527 324.695C423.522 323.723 421.226 322.358 419.778 320.523V320.522C417.392 317.665 416.235 314.017 416.235 309.664V259.512H427.195V309.792L427.2 310.405C427.307 316.65 429.053 320.264 432.023 321.827C433.548 322.588 435.556 323 438.1 323V324L437.608 323.995C435.345 323.948 433.441 323.575 431.896 322.875L431.571 322.72C428.099 320.901 426.309 316.8 426.2 310.417L426.195 309.792Z" fill="#EDE7E1"/>
<path d="M397.836 272.544C397.836 269.813 396.726 267.21 394.508 264.735C391.78 261.677 386.249 260.099 377.915 260.004L377.101 260C369.25 260 361.527 261.749 353.933 265.248L354.444 266.144C356.407 265.034 359.479 263.925 363.66 262.815C367.927 261.621 371.639 261.023 374.796 261.023C377.953 261.023 380.514 261.45 382.477 262.304C384.439 263.072 385.804 264.011 386.572 265.12C387.34 266.229 387.938 267.382 388.364 268.576C388.876 269.685 389.047 270.624 388.876 271.392C388.705 272.074 388.705 272.458 388.876 272.544V293.792C387.233 293.643 385.427 293.559 383.458 293.54L382.604 293.536C380.3 293.536 377.782 293.664 375.052 293.92C364.044 294.603 356.918 296.48 353.676 299.552L353.38 299.838C351.935 301.263 351.053 302.575 350.732 303.775L350.612 304.252C350.351 305.353 350.221 306.389 350.221 307.359L350.225 307.744C350.243 308.64 350.327 309.536 350.477 310.432C351.882 319.856 357.652 324.715 367.786 325.01L368.78 325.023C377.996 325.023 384.695 321.226 388.876 313.632V316.319C388.876 317.685 389.858 319.306 391.82 321.184C393.82 323.264 397.433 324.369 402.658 324.499L403.725 324.512H407.692V323.487H403.725L402.316 323.231C401.292 323.146 400.268 322.464 399.244 321.184C398.364 319.904 397.897 318.136 397.842 315.881L397.836 315.424V272.544ZM381.836 294.56C384.225 294.56 386.572 294.645 388.876 294.815V310.304C388.62 313.205 386.658 316.234 382.988 319.392C379.404 322.464 375.351 324 370.828 324C364.002 324 360.205 319.477 359.437 310.432C359.373 309.791 359.332 309.199 359.316 308.655L359.309 308.128C359.309 304.608 360.171 301.8 361.896 299.705L362.252 299.296C364.215 297.163 368.439 295.711 374.924 294.943C377.228 294.687 379.532 294.56 381.836 294.56ZM360.315 308.627C360.326 308.971 360.346 309.338 360.377 309.729L360.432 310.332V310.34L360.433 310.347C360.808 314.767 361.914 317.926 363.626 319.965C365.304 321.963 367.659 323 370.828 323C375.1 323 378.925 321.557 382.336 318.634L382.988 318.057C386.125 315.205 387.656 312.601 387.876 310.252V295.749C385.895 295.623 383.882 295.56 381.836 295.56C379.569 295.56 377.302 295.686 375.035 295.938L375.034 295.937C371.836 296.316 369.237 296.86 367.217 297.554C365.185 298.252 363.812 299.077 362.988 299.973C361.241 301.872 360.309 304.548 360.309 308.128L360.315 308.627ZM398.836 315.424L398.842 315.859C398.894 317.979 399.329 319.524 400.048 320.587C400.93 321.682 401.68 322.127 402.28 322.221L402.399 322.235L402.447 322.239L402.495 322.248L403.812 322.487H408.692V325.512H403.725C397.889 325.512 393.566 324.414 391.129 321.906C389.381 320.234 388.193 318.582 387.932 316.979C386.064 319.533 383.826 321.562 381.209 323.046C377.682 325.045 373.527 326.023 368.78 326.023C363.262 326.023 358.801 324.775 355.517 322.157C352.221 319.529 350.24 315.625 349.487 310.579C349.31 309.507 349.221 308.433 349.221 307.359C349.221 306.148 349.406 304.866 349.766 303.518C350.177 301.975 351.315 300.412 352.988 298.826C354.786 297.123 357.566 295.83 361.197 294.873C364.839 293.914 369.433 293.268 374.959 292.924L375.982 292.833C378.349 292.635 380.557 292.536 382.604 292.536C384.499 292.536 386.256 292.593 387.876 292.708V272.844C387.864 272.817 387.85 272.791 387.841 272.766C387.764 272.555 387.748 272.348 387.748 272.191C387.748 271.883 387.812 271.532 387.9 271.174C387.99 270.767 387.941 270.179 387.614 269.36L387.456 268.995L387.438 268.954L387.423 268.912C387.027 267.805 386.471 266.73 385.75 265.688C385.18 264.866 384.128 264.074 382.455 263.374L382.112 263.235L382.095 263.229L382.077 263.221C380.285 262.442 377.875 262.023 374.796 262.023C371.758 262.023 368.141 262.599 363.93 263.778L363.917 263.782C359.757 264.886 356.785 265.97 354.937 267.015L354.069 267.504L352.522 264.796L353.514 264.34C361.231 260.785 369.096 259 377.101 259C381.547 259 385.29 259.398 388.307 260.219C391.319 261.038 393.672 262.297 395.253 264.068C397.599 266.685 398.836 269.516 398.836 272.544V315.424Z" fill="#EDE7E1"/>
<path d="M341.276 307.744C341.276 303.984 340.489 300.824 338.914 298.264L338.588 297.76C336.908 295.2 334.816 293.24 332.311 291.88L331.805 291.615C329.49 290.346 326.979 289.109 324.272 287.905L323.101 287.392C320.029 286.026 317.127 284.832 314.396 283.808C311.751 282.698 309.532 281.205 307.74 279.328C306.06 277.488 305.167 275.273 305.062 272.683L305.052 272.16C305.052 269.344 306.076 266.826 308.124 264.607C310.172 262.303 313.5 261.109 318.108 261.023H320.796C322.332 261.023 324.593 261.408 327.58 262.176C330.652 262.944 332.871 263.883 334.236 264.992L334.876 264.096C330.908 261.45 325.418 260.087 318.407 260.004L317.725 260C313.373 260 309.02 260.725 304.668 262.176L304.194 262.343C301.854 263.218 299.964 264.655 298.524 266.655C296.988 268.703 296.221 271.392 296.221 274.72L296.234 275.339C296.379 278.414 297.613 281.152 299.933 283.552C302.407 286.026 305.437 287.989 309.021 289.439C312.604 290.805 316.146 292.213 319.645 293.664C323.228 295.029 326.258 296.992 328.732 299.552C331.207 302.026 332.444 305.355 332.444 309.536L332.439 309.918C332.339 313.847 330.676 317.175 327.452 319.903C324.209 322.634 320.071 324 315.036 324V323C319.881 323 323.778 321.69 326.808 319.139C329.926 316.499 331.444 313.316 331.444 309.536C331.444 305.689 330.348 302.702 328.233 300.473L328.025 300.259L328.014 300.247C325.796 297.953 323.106 296.153 319.93 294.852L319.288 294.599L319.274 294.593L319.261 294.588C315.771 293.141 312.239 291.736 308.664 290.374L308.654 290.37L308.646 290.366C305.181 288.964 302.199 287.09 299.715 284.736L299.226 284.259L299.219 284.253L299.213 284.247C296.572 281.515 295.221 278.326 295.221 274.72C295.221 271.248 296.021 268.336 297.713 266.071L298.031 265.646C299.655 263.563 301.77 262.087 304.352 261.227C308.8 259.744 313.259 259 317.725 259C324.937 259 330.735 260.297 335.021 262.998L335.431 263.264L336.29 263.837L334.432 266.438L333.605 265.768C332.486 264.858 330.616 264.014 327.894 263.289L327.338 263.146L327.331 263.145C324.361 262.381 322.2 262.023 320.796 262.023H318.127L317.307 262.052C313.289 262.254 310.548 263.388 308.872 265.272L308.865 265.279L308.859 265.286C306.968 267.335 306.052 269.615 306.052 272.16L306.062 272.639C306.157 275.006 306.964 276.991 308.473 278.646C310.155 280.406 312.246 281.819 314.766 282.878C317.512 283.908 320.426 285.108 323.507 286.478C326.686 287.852 329.611 289.273 332.285 290.739C335.165 292.187 337.543 294.349 339.416 297.199C341.346 300.048 342.276 303.585 342.276 307.744L342.271 308.143C342.18 312.246 340.671 315.779 337.76 318.69C334.832 321.618 331.523 323.593 327.839 324.581C324.33 325.545 320.53 326.023 316.444 326.023C307.891 326.023 301.233 324.199 296.637 320.389L296.198 320.014L295.4 319.31L297.61 317.1L298.317 317.771C299.871 319.247 302.23 320.509 305.476 321.508C308.805 322.506 311.99 323 315.036 323V324L314.442 323.994C311.666 323.938 308.791 323.489 305.818 322.649L305.181 322.464C301.853 321.44 299.335 320.117 297.628 318.496L296.86 319.264C301.076 322.984 307.334 324.902 315.635 325.019L316.444 325.023C320.455 325.023 324.167 324.554 327.58 323.615C331.079 322.677 334.236 320.799 337.052 317.983C339.78 315.255 341.187 311.967 341.272 308.118L341.276 307.744Z" fill="#EDE7E1"/>
<path d="M573.347 376.512C573.347 378.618 573.8 380.498 574.707 382.152C575.64 383.805 576.907 385.112 578.507 386.072C580.107 387.032 581.92 387.512 583.947 387.512C586 387.512 587.813 387.032 589.387 386.072C590.987 385.112 592.24 383.805 593.147 382.152C594.08 380.498 594.547 378.618 594.547 376.512C594.547 374.405 594.08 372.525 593.147 370.872C592.24 369.218 590.987 367.912 589.387 366.952C587.813 365.992 586 365.512 583.947 365.512C581.92 365.512 580.107 365.992 578.507 366.952C576.907 367.912 575.64 369.218 574.707 370.872C573.8 372.525 573.347 374.405 573.347 376.512ZM569.747 376.512C569.747 374.458 570.093 372.565 570.787 370.832C571.507 369.072 572.507 367.552 573.787 366.272C575.067 364.965 576.573 363.952 578.307 363.232C580.04 362.485 581.92 362.112 583.947 362.112C586 362.112 587.88 362.485 589.587 363.232C591.32 363.952 592.827 364.965 594.107 366.272C595.387 367.552 596.373 369.072 597.067 370.832C597.787 372.565 598.147 374.458 598.147 376.512C598.147 378.538 597.787 380.432 597.067 382.192C596.373 383.952 595.387 385.485 594.107 386.792C592.827 388.072 591.32 389.085 589.587 389.832C587.88 390.552 586 390.912 583.947 390.912C581.92 390.912 580.04 390.552 578.307 389.832C576.573 389.085 575.067 388.072 573.787 386.792C572.507 385.485 571.507 383.952 570.787 382.192C570.093 380.432 569.747 378.538 569.747 376.512Z" fill="#EDE7E1"/>
<path d="M530.731 362.512H534.131V391.912L512.931 369.672V390.512H509.531V361.112L530.731 383.352V362.512ZM514.931 358.832C515.064 358.165 515.344 357.592 515.771 357.112C516.197 356.632 516.704 356.258 517.291 355.992C517.904 355.698 518.504 355.552 519.091 355.552C519.731 355.552 520.251 355.645 520.651 355.832C521.077 356.018 521.437 356.245 521.731 356.512C522.051 356.752 522.384 356.965 522.731 357.152C523.077 357.338 523.517 357.432 524.051 357.432C524.424 357.432 524.784 357.272 525.131 356.952C525.504 356.632 525.891 356.152 526.291 355.512L528.131 357.232C527.917 357.712 527.597 358.178 527.171 358.632C526.771 359.085 526.291 359.458 525.731 359.752C525.171 360.018 524.557 360.152 523.891 360.152C523.171 360.152 522.557 359.992 522.051 359.672C521.544 359.352 521.064 359.045 520.611 358.752C520.184 358.432 519.664 358.272 519.051 358.272C518.517 358.272 518.104 358.405 517.811 358.672C517.517 358.912 517.317 359.192 517.211 359.512C517.104 359.832 517.051 360.098 517.051 360.312L514.931 358.832Z" fill="#EDE7E1"/>
<path d="M458.619 390.512V387.312H472.739V390.512H458.619ZM458.619 365.712V362.512H472.739V365.712H458.619ZM458.619 376.912V373.712H471.939V376.912H458.619ZM456.739 362.512H460.139V390.512H456.739V362.512Z" fill="#EDE7E1"/>
<path d="M405.065 382.032C405.705 383.152 406.371 384.138 407.065 384.992C407.785 385.845 408.585 386.512 409.465 386.992C410.345 387.472 411.345 387.712 412.465 387.712C413.958 387.712 415.158 387.298 416.065 386.472C416.971 385.645 417.425 384.592 417.425 383.312C417.425 382.058 417.131 381.058 416.545 380.312C415.958 379.565 415.185 378.965 414.225 378.512C413.291 378.032 412.291 377.605 411.225 377.232C410.531 376.992 409.758 376.685 408.905 376.312C408.051 375.912 407.238 375.418 406.465 374.832C405.691 374.218 405.051 373.472 404.545 372.592C404.065 371.712 403.825 370.632 403.825 369.352C403.825 367.965 404.171 366.725 404.865 365.632C405.558 364.538 406.518 363.685 407.745 363.072C408.971 362.432 410.371 362.112 411.945 362.112C413.465 362.112 414.785 362.405 415.905 362.992C417.051 363.552 418.025 364.285 418.825 365.192C419.625 366.072 420.251 367.005 420.705 367.992L417.785 369.672C417.438 368.978 416.998 368.298 416.465 367.632C415.931 366.965 415.278 366.418 414.505 365.992C413.758 365.565 412.838 365.352 411.745 365.352C410.225 365.352 409.118 365.725 408.425 366.472C407.731 367.192 407.385 368.005 407.385 368.912C407.385 369.685 407.585 370.405 407.985 371.072C408.385 371.712 409.051 372.325 409.985 372.912C410.945 373.472 412.238 374.032 413.865 374.592C414.611 374.858 415.398 375.205 416.225 375.632C417.051 376.058 417.811 376.605 418.505 377.272C419.225 377.912 419.811 378.698 420.265 379.632C420.718 380.538 420.945 381.632 420.945 382.912C420.945 384.138 420.705 385.245 420.225 386.232C419.771 387.218 419.131 388.058 418.305 388.752C417.505 389.445 416.585 389.978 415.545 390.352C414.531 390.725 413.465 390.912 412.345 390.912C410.825 390.912 409.411 390.592 408.105 389.952C406.825 389.285 405.691 388.418 404.705 387.352C403.745 386.258 402.958 385.098 402.345 383.872L405.065 382.032Z" fill="#EDE7E1"/>
<path d="M363.42 362.512H366.82V390.512H363.42V362.512Z" fill="#EDE7E1"/>
<path d="M305.432 362.512H308.832V390.512H305.432V362.512ZM313.832 390.512H307.312V387.112H313.832C315.406 387.112 316.846 386.872 318.152 386.392C319.459 385.885 320.579 385.178 321.512 384.272C322.446 383.338 323.166 382.218 323.672 380.912C324.179 379.605 324.432 378.138 324.432 376.512C324.432 374.885 324.179 373.418 323.672 372.112C323.166 370.805 322.446 369.698 321.512 368.792C320.579 367.858 319.459 367.152 318.152 366.672C316.846 366.165 315.406 365.912 313.832 365.912H307.312V362.512H313.832C316.552 362.512 318.966 363.098 321.072 364.272C323.179 365.445 324.832 367.085 326.032 369.192C327.232 371.272 327.832 373.712 327.832 376.512C327.832 379.312 327.232 381.765 326.032 383.872C324.832 385.952 323.179 387.578 321.072 388.752C318.966 389.925 316.552 390.512 313.832 390.512Z" fill="#EDE7E1"/>
<path d="M256.407 323.114C258.826 322.925 262.907 321.117 263.111 323.15C263.314 325.184 263.765 328.015 263.751 330.169C263.98 348.759 252.85 362.357 240.205 374.582C239.304 375.451 233.288 380.338 232.535 380.543C231.938 381.251 230.209 382.578 229.378 383.14C229.031 383.462 227.734 383.635 227.238 384.037C222.354 388.017 216.575 390.446 210.824 392.868C210.216 393.123 209.476 393.061 208.876 393.293C202.379 395.804 194.159 398.186 187.214 396.35C183.517 395.371 179.977 395.224 176.368 394.202C167.46 391.681 158.755 388.882 151.444 382.945C148.281 380.375 145.152 377.679 142.14 374.934C140.38 373.301 138.855 370.788 137.009 369.17C131.551 364.728 125.134 359.165 120.03 354.479C115.327 350.161 110.647 339.183 110.355 332.91C110.22 330.017 110.002 326.236 110 323.15C111.16 323.136 117.117 322.54 117.117 323.15C116.975 330.459 116.85 334.358 119.992 341.159C121.102 343.633 122.423 346.599 124.328 348.593C127.793 352.22 132.02 355.234 135.663 358.728C137.357 360.398 140.061 362.039 141.647 363.719C146.598 368.963 151.318 373.96 157.234 378.217C160.342 380.451 164.51 382.822 168.139 384.226C176.643 387.512 186.217 389.377 195.298 389.863C196.808 389.933 201.178 388.751 202.565 388.097C203.029 387.877 203.043 388.002 203.704 388.179C207.99 386.47 212.071 385.188 216.214 383.042C229.064 376.385 239.425 366.616 248.108 355.193C255.022 346.025 258.008 334.485 256.407 323.114Z" fill="#EDE7E1"/>
<path d="M195.132 253.04C208.031 252.654 218.142 255.003 228.097 263.39C229.449 264.53 232.486 266.681 233.567 267.842C236.528 271.025 240.933 276.492 243.161 280.158C245.268 283.629 247.223 288.254 249.181 291.787C250.463 294.103 252.855 297.111 254.306 299.456C257.956 305.351 262.877 316.363 263.111 323.15L256.418 323.19C255.558 320.696 254.961 317.912 254.009 315.324C252.433 311.192 250.621 306.649 248.007 303.056C243.947 297.476 241.191 291.51 238.159 285.362C236.544 282.091 234.359 279.877 232.504 276.972C230.046 273.126 227.779 271.101 224.047 268.507C220.713 265.973 218.103 264.024 214.209 262.125C209.182 259.673 203.739 259.368 198.231 259.169C197.044 259.123 195.763 258.835 194.57 258.979C190.414 259.646 186.798 260.952 182.864 262.326C177.545 264.103 171.644 265.402 166.177 266.9C154.75 270.03 145.482 276.791 136.435 284.252C124.893 293.772 118.128 308.248 117.117 323.15H110C110.927 310.032 115.996 296.696 124.341 286.494C131.318 277.968 141.305 272.569 150.621 267.052C159.385 261.861 169.072 259.918 178.736 257.266C184.162 255.778 189.425 253.468 195.132 253.04Z" fill="#EDE7E1"/>
<path d="M240.693 323.025C240.693 320.382 247.181 316.319 248.267 320.71C249.354 325.102 248.201 332.785 243.79 339.797C243.753 340.853 242.918 341.13 242.472 342.244L242.241 342.318C241.773 342.856 241.576 343.325 240.958 343.98C238.552 346.53 235.652 348.809 233.574 351.636C232.366 353.363 231.167 355.279 230.074 357.081C226.639 362.743 222.905 367.973 217.702 372.137C217.556 372.253 217.291 371.933 217.144 372.05C216.057 372.917 215.186 374.044 214.039 374.836C205.902 379.3 196.461 381.011 187.263 381.368C182.56 381.551 177.652 379.497 173.602 377.273C170.331 375.478 168.404 371.968 165.396 369.946C163.128 368.419 160.462 367.149 158.148 365.662C155.312 363.838 152.863 362.226 149.962 360.634C147.313 359.181 141.735 356.523 139.58 354.941C137.42 353.353 129.663 345.978 128.349 344.195C125.409 340.205 126.54 328.144 127.639 323.228C129.208 323.196 132.803 322.529 134.146 323.025C133.943 324.855 131.911 330.973 132.061 333.667C132.289 337.766 133.407 341.202 135.954 344.214C141.968 351.328 146.916 352.223 154.641 356.086C158.775 358.154 163.419 361.237 167.608 363.442C172.178 365.964 174.173 370.21 178.827 372.805C184.706 376.084 189.133 375.427 195.522 374.483C203.76 373.267 209.318 370.934 215.334 365.155C219.544 361.112 222.283 356.654 225.433 351.773C226.42 350.257 227.275 348.528 228.395 347.11C231.84 342.749 236.52 339.705 238.995 334.533C240.767 330.83 240.693 325.668 240.693 323.025Z" fill="#EDE7E1"/>
<path d="M127.69 323.15C128.611 317.979 128.495 313.716 128.752 308.514C128.978 303.932 131.608 297.721 134.209 293.992C135.728 291.814 139.26 288.784 141.406 287.184C144.262 285.052 148.063 283.664 151.068 281.721C154.898 278.83 157.508 275.245 161.999 273.218C165.489 271.642 167.553 271.252 171.431 271.656C176.312 272.165 180.621 269.903 185.289 268.572C189.76 267.297 195.232 266.316 199.916 267.101C204.026 268.076 211.675 270.429 214.096 274.092C216.336 277.277 216.679 281.346 219.26 284.329C224.941 290.894 233.844 293.229 239.121 300.315C242.225 304.481 245.2 308.31 246.483 313.462C246.639 314.083 247.043 317.482 247.236 317.697L247.293 317.925C247.728 319.579 249.261 321.358 247.455 322.952C246.741 323.416 241.842 323.187 240.693 323.168C240.442 312.651 236.058 304.792 227.97 298.201C226.384 296.908 223.234 295.4 222.229 293.816C220.922 293.265 220.752 293.077 219.675 292.177C217.594 290.174 215.325 288.106 213.735 285.742C211.948 283.087 211.396 277.471 208.872 275.63C206.201 273.683 200.15 270.959 196.718 271.55C196.596 271.566 196.474 271.581 196.352 271.597L196.042 271.367C194.52 271.679 192.702 271.914 191.146 272.106C186.142 273.723 181.03 275.501 175.923 276.677C173.742 277.18 169.367 275.82 167.188 276.622C160.661 279 159.203 285.646 152.172 287.81C147.402 289.279 144.455 291.894 141.056 295.215C132.225 303.845 135.733 311.945 134.197 322.947C131.935 323.098 129.952 323.168 127.69 323.15Z" fill="#EDE7E1"/>
<path d="M144.363 322.744C145.177 318.88 149.809 322.685 150.463 323.15C150.342 324.494 147.43 330.005 146.785 332.145C144.265 340.506 151.928 343.6 158.628 344.847C163.612 345.773 166.684 344.993 171.347 347.877C176.821 351.262 180.855 357.228 186.833 359.421C189.491 360.27 193.772 359.058 196.348 358.804C200.384 358.406 205.033 358.617 208.659 356.284C212.656 353.714 212.075 348.495 213.476 344.371C214.344 341.813 215.2 339.294 216.533 336.877C220.296 330.066 223.093 331.195 224.779 322.983C226.544 323.048 229.967 320.914 230.17 322.744C230.374 324.574 229.761 325.235 229.451 326.632C228.118 333.051 223.678 334.982 220.791 341.635C219.906 343.66 219.225 345.766 218.757 347.925C218.05 351.133 218.002 354.102 216.174 356.97C213.374 361.366 207.76 363.083 202.949 364.127C200.593 364.64 196.946 364.622 194.703 364.985C183.248 366.833 181.792 364.197 173.745 357.048C171.472 355.029 169.83 353.119 166.879 352.05C164.091 351.039 162.12 351.143 159.208 350.922C154.958 350.569 150.387 349.211 146.766 346.956C137.818 341.382 143.55 326.607 144.363 322.744Z" fill="#EDE7E1"/>
<path d="M198.699 280.915C199.427 280.95 200.333 280.906 200.971 280.974C207.883 281.714 209.639 287.752 211.886 293.143C212.262 294.045 213.936 295.676 214.711 296.424C217.842 299.436 222.685 300.055 225.563 303.32C230.82 309.364 230.559 315.699 230.196 323.109H224.755C225.137 317.872 224.968 312.707 221.866 308.215C219.699 305.078 215.782 305.999 213.308 303.264C211.492 301.066 208.179 297.943 206.81 295.558C204.286 291.158 205.6 289.828 200.862 286.628L198.381 286.381C191.919 289.199 189.378 294.421 180.679 293.631L180.039 293.166C178.838 293.043 174.265 292.026 173.123 291.614C172.471 291.913 171.184 292.479 170.657 292.856C168.992 294.047 167.304 296.719 165.644 297.803C162.307 299.984 158.922 301.477 155.712 303.907C150.761 307.656 151.202 310.729 151.139 316.365C151.118 318.306 150.731 321.205 150.464 323.15C148.693 323.263 146.103 323.144 144.269 323.116C146.323 315.231 143.511 309.336 148.454 303.114C152.017 298.629 155.979 296.956 160.774 294.11C164.086 292.144 164.525 289.689 168.122 287.708C174.866 283.995 179.36 289.246 184.765 287.683C190.699 285.966 191.665 281.827 198.699 280.915Z" fill="#EDE7E1"/>
<path d="M155.954 322.746C157.326 319.794 162.054 321.32 161.647 322.54C161.24 323.76 161.404 325.972 161.803 327.034C165.252 336.224 172.283 329.754 179.413 336.117C183.959 340.173 185.077 344.914 189.956 347.597C191.201 348.28 192.883 348.339 194.181 347.806C203.922 343.81 201.094 340.442 203.797 332.197C204.373 330.437 207.474 325.089 208.046 323.001C208.617 320.914 214.107 319.694 214.107 322.947C214.107 326.2 210.865 330.511 209.455 334.255C207.861 338.491 207.984 343.683 205.005 347.309C204.445 347.991 202.775 349.515 201.835 349.558C201.462 349.894 200.538 350.518 200.309 350.754C198.266 351.884 193.703 353.437 191.35 353.347C182.342 353.008 180.211 341.978 173.993 339.221C169.577 337.264 164.149 339.699 159.635 334.647C156.287 330.899 154.581 325.697 155.954 322.746Z" fill="#EDE7E1"/>
<path d="M196.279 301.448C201.279 301.05 205.825 304.277 208.968 307.854C212.631 312.083 214.479 317.567 214.107 323.15C212.133 323.109 207.804 323.76 208.007 323.15C208.211 322.54 208.016 320.855 207.731 319.774C206.334 314.448 202.908 308.671 197.47 306.873C194.941 307.519 192.299 308.267 189.697 308.484C185.467 308.836 181.041 308.636 176.813 308.976C172.266 309.021 170.118 313.777 167.736 316.787C166.208 318.718 162.373 320.126 161.647 322.54C160.76 323.292 155.954 324.37 155.954 322.743C157.103 319.368 158.809 316.482 161.904 314.504C164.469 312.865 164.879 310.803 166.853 308.452C173.169 300.926 179.621 304.038 187.959 303.409C190.274 303.234 192.425 301.713 196.279 301.448Z" fill="#EDE7E1"/>
<path d="M173.587 322.997C174.096 322.968 172.866 320.913 174.678 323.048C176.49 325.183 179.775 324.33 182.57 326.472C184.992 328.329 186.362 330.682 188.455 332.953C193.706 332.756 191.954 330.218 194.028 326.644C194.932 325.089 199.06 323.353 198.247 322.54C197.434 321.727 202.314 319.083 202.924 322.947C203.534 326.81 201.689 326.181 199.984 327.58C199.57 327.974 198.648 328.835 198.391 329.293C197.233 331.359 196.777 334.928 194.523 336.112C193.467 336.666 191.695 337.086 190.54 337.296C184.61 338.619 183.144 332.922 179.251 330.218C176.783 328.503 172.181 329.609 170.691 326.115C170.37 325.36 169.374 323.76 169.984 322.947C170.594 322.133 172.641 322.978 173.587 322.997Z" fill="#EDE7E1"/>
<path d="M192.576 313.954C198.825 313.331 202.163 317.335 202.834 323.139C201.869 323.164 200.689 323.227 199.727 323.187C197.434 322.947 198.141 321.597 197.408 320.254C196.988 319.487 196.413 318.881 195.825 318.24C192.453 317.892 190.216 318.552 186.888 318.723C184.842 318.827 183.326 318.429 181.178 318.782C177.112 320.611 174.348 320.941 174.708 323.164C175.067 325.387 171.491 323.188 169.883 323.176C172.677 316.61 178.043 312.68 185.261 315.339C187.881 314.668 189.925 314.349 192.576 313.954Z" fill="#EDE7E1"/>
</svg>
